<?xml version="1.0" standalone="no"?>
<!DOCTYPE svg PUBLIC "-//W3C//DTD SVG 20010904//EN"
 "http://www.w3.org/TR/2001/REC-SVG-20010904/DTD/svg10.dtd">
<svg version="1.0" xmlns="http://www.w3.org/2000/svg"
 width="299.000000pt" height="95.000000pt" viewBox="0 0 299.000000 95.000000"
 preserveAspectRatio="xMidYMid meet">
<metadata>
Created by potrace 1.16, written by Peter Selinger 2001-2019
</metadata>
<g transform="translate(0.000000,95.000000) scale(0.100000,-0.100000)"
fill="#000000" stroke="none">
<path d="M2139 875 c0 -11 0 -41 1 -68 1 -35 -3 -49 -14 -53 -9 -3 -13 -10
-10 -15 3 -5 -2 -12 -10 -15 -9 -3 -16 -14 -16 -24 0 -32 -42 -130 -56 -130
-9 0 -14 17 -16 53 l-3 52 -65 0 -65 0 3 -51 c3 -40 0 -53 -12 -57 -10 -4 -16
-19 -16 -42 l0 -35 -115 0 -115 0 0 -70 0 -70 -660 0 -660 0 0 -25 c0 -20 5
-25 25 -25 16 0 25 -6 25 -15 0 -13 -23 -15 -145 -15 -164 0 -159 3 -130 -79
21 -61 51 -98 98 -124 l42 -22 1282 -3 1283 -2 6 27 c14 64 39 132 73 198 20
39 37 73 39 77 2 4 -113 9 -255 10 l-258 3 -2 40 c-6 97 -15 145 -26 145 -9 0
-11 13 -9 40 l4 40 -50 0 c-30 0 -54 -5 -59 -13 -4 -7 -20 -18 -35 -24 -16 -7
-28 -19 -28 -28 0 -8 -5 -15 -11 -15 -7 0 -10 33 -10 98 1 123 -8 234 -20 247
-6 5 -9 2 -10 -10z"/>
</g>
</svg>
