<?xml version="1.0" standalone="no"?>
<!DOCTYPE svg PUBLIC "-//W3C//DTD SVG 20010904//EN"
 "http://www.w3.org/TR/2001/REC-SVG-20010904/DTD/svg10.dtd">
<svg version="1.0" xmlns="http://www.w3.org/2000/svg"
 width="153.000000pt" height="69.000000pt" viewBox="0 0 153.000000 69.000000"
 preserveAspectRatio="xMidYMid meet">
<metadata>
Created by potrace 1.16, written by Peter Selinger 2001-2019
</metadata>
<g transform="translate(0.000000,69.000000) scale(0.100000,-0.100000)"
fill="#000000" stroke="none">
<path d="M536 486 c-5 -20 -13 -25 -44 -28 l-37 -3 -10 -92 c-5 -50 -13 -95
-17 -98 -4 -4 -25 -4 -47 0 -39 6 -41 9 -41 41 0 28 -4 35 -26 40 -14 4 -30 2
-37 -5 -6 -6 -25 -11 -42 -12 l-30 -1 33 -9 c19 -6 32 -16 32 -26 0 -14 -12
-15 -105 -9 -58 4 -105 5 -105 2 0 -3 28 -41 62 -86 l61 -80 582 0 c321 0 597
3 614 6 27 6 31 11 31 38 0 26 5 34 27 42 25 9 26 10 9 26 -11 12 -33 18 -62
18 -42 0 -59 12 -31 23 6 3 3 6 -8 7 -17 2 -16 3 5 9 21 7 17 9 -27 15 -61 9
-73 4 -73 -30 0 -23 -2 -24 -75 -24 -73 0 -75 1 -75 25 0 20 5 25 26 25 46 0
20 25 -29 28 -44 3 -47 5 -47 31 0 17 -7 31 -16 35 -25 10 -62 7 -70 -5 -3 -6
-19 -9 -35 -7 -15 3 -26 1 -23 -4 3 -4 13 -8 22 -9 14 0 13 -2 -3 -9 -17 -7
-17 -9 -2 -9 9 -1 17 -6 17 -11 0 -7 -22 -10 -57 -8 l-58 3 -7 44 c-4 24 -9
45 -11 47 -1 2 -22 4 -46 6 l-43 3 -17 -53 c-9 -30 -20 -53 -25 -53 -5 0 -20
37 -33 82 -13 45 -26 86 -29 91 -3 4 -20 8 -39 8 -26 0 -34 -5 -39 -24z"/>
</g>
</svg>
