<?xml version="1.0" standalone="no"?>
<!DOCTYPE svg PUBLIC "-//W3C//DTD SVG 20010904//EN"
 "http://www.w3.org/TR/2001/REC-SVG-20010904/DTD/svg10.dtd">
<svg version="1.0" xmlns="http://www.w3.org/2000/svg"
 width="112.000000pt" height="60.000000pt" viewBox="0 0 112.000000 60.000000"
 preserveAspectRatio="xMidYMid meet">
<metadata>
Created by potrace 1.16, written by Peter Selinger 2001-2019
</metadata>
<g transform="translate(0.000000,60.000000) scale(0.100000,-0.100000)"
fill="#000000" stroke="none">
<path d="M599 533 c0 -4 0 -59 1 -120 1 -93 -1 -113 -13 -113 -8 0 -17 7 -21
15 -9 25 -80 19 -110 -9 -15 -13 -26 -28 -26 -35 0 -8 -49 -11 -165 -11 l-165
0 1 -42 c0 -24 8 -72 17 -108 l17 -65 389 -3 c287 -2 392 1 403 10 14 11 87
132 99 162 5 13 -4 16 -55 16 l-60 0 -11 41 c-7 23 -9 51 -6 62 3 13 -1 21
-15 24 -10 3 -19 13 -19 22 -1 14 -2 14 -14 -1 -17 -23 -96 -25 -96 -3 0 9
-10 15 -27 16 l-28 1 30 7 30 6 -43 13 c-51 16 -62 10 -62 -29 0 -17 -7 -38
-16 -46 -14 -15 -15 -7 -13 87 2 74 0 105 -9 108 -7 2 -12 0 -13 -5z"/>
</g>
</svg>
