<?xml version="1.0" standalone="no"?>
<!DOCTYPE svg PUBLIC "-//W3C//DTD SVG 20010904//EN"
 "http://www.w3.org/TR/2001/REC-SVG-20010904/DTD/svg10.dtd">
<svg version="1.0" xmlns="http://www.w3.org/2000/svg"
 width="302.000000pt" height="98.000000pt" viewBox="0 0 302.000000 98.000000"
 preserveAspectRatio="xMidYMid meet">
<metadata>
Created by potrace 1.16, written by Peter Selinger 2001-2019
</metadata>
<g transform="translate(0.000000,98.000000) scale(0.100000,-0.100000)"
fill="#000000" stroke="none">
<path d="M1473 773 l2 -48 -51 3 c-61 4 -69 -4 -78 -78 -4 -30 -9 -70 -12 -87
l-6 -33 -119 0 c-74 0 -120 4 -125 11 -4 7 -22 9 -48 5 -22 -3 -49 -6 -58 -5
-27 1 -106 0 -125 -1 -10 0 -33 2 -51 6 -19 4 -43 2 -55 -4 -12 -6 -48 -13
-80 -16 -77 -6 -138 -42 -165 -97 -12 -23 -19 -46 -16 -51 3 -4 498 -8 1101
-8 l1095 0 -6 27 c-5 17 -3 29 6 35 11 6 10 10 -1 17 -9 6 -11 18 -7 35 6 25
5 26 -39 26 l-45 0 0 85 0 85 -89 0 -90 0 -15 -52 c-8 -29 -21 -74 -28 -100
-13 -52 -17 -54 -90 -42 -28 5 -38 11 -38 25 0 16 -8 19 -51 19 -35 0 -55 -5
-63 -15 -10 -14 -24 -14 -101 -6 -50 5 -154 13 -232 16 l-142 7 -62 94 c-41
63 -68 94 -80 94 -16 0 -19 8 -19 50 0 28 -4 50 -10 50 -5 0 -9 -21 -7 -47z"/>
</g>
</svg>
